# File created by Blade
# Date/Time:  Tue Jan 27 19:58:31 2015
# Frame Rate: 120.000 fps
#------------------------------------------------------
:FULLY-SPECIFIED
:DEGREES
2057
root 6.795117 32.909618 1.952086 -6.428457 -16.659541 -14.007663
Spine 9.803848 12.180325 6.284366
Head 9.974751 -7.134988 9.027570
LeftShoulder -15.006104 2.069344 31.402175
LeftArm -7.589067 -10.379873 -82.165301
LeftForeArm -22.124127 -0.000000 124.178314
LeftHand 9.970835 -0.000000 -22.418066
LeftHandThumb1 -26.253704 0.000000 33.147579
RightShoulder -19.059107 -17.221549 -20.568378
RightArm 6.546995 -10.127976 87.107207
RightForeArm -14.805819 0.000000 16.877101
RightHand 19.142611 -0.000000 7.498060
RightHandThumb1 -24.326973 -0.000000 -32.862282
LeftUpLeg 14.782964 10.987628 5.466095
LeftLeg -0.880965 -0.000000 0.000000
LeftFoot -19.862804 16.625947 -18.803615
LeftToeBase 24.443206 -0.000000 -0.000000
RightUpLeg -79.514537 -21.641364 12.923967
RightLeg 100.660389 -0.000000 -0.000000
RightFoot 27.699686 -28.251745 23.608833
RightToeBase 8.066180 -0.000000 -0.000000
2058
root 6.796195 32.909613 1.944073 -6.419950 -16.575030 -13.995193
Spine 9.805634 12.172429 6.319476
Head 9.976269 -7.145520 8.985173
LeftShoulder -14.987016 2.001625 31.402259
LeftArm -7.607061 -10.339705 -82.138721
LeftForeArm -22.100482 -0.000000 124.098646
LeftHand 10.023503 -0.000000 -22.395050
LeftHandThumb1 -26.253704 0.000000 33.147579
RightShoulder -19.029202 -17.185924 -20.585223
RightArm 6.477381 -10.178663 87.214034
RightForeArm -14.842522 0.000000 16.869064
RightHand 19.137616 -0.000000 7.525482
RightHandThumb1 -24.326973 -0.000000 -32.862282
LeftUpLeg 14.745643 11.001166 5.453421
LeftLeg -0.891766 -0.000000 0.000000
LeftFoot -19.751150 16.597296 -18.628539
LeftToeBase 24.223487 -0.000000 -0.000000
RightUpLeg -79.504106 -21.695119 12.907695
RightLeg 100.636296 -0.000000 -0.000000
RightFoot 27.684846 -28.218604 23.693971
RightToeBase 8.122157 -0.000000 -0.000000
2059
root 6.799787 32.908822 1.936261 -6.414131 -16.495556 -13.959657
Spine 9.804832 12.180767 6.337252
Head 9.968868 -7.171904 8.952366
LeftShoulder -14.950465 1.969947 31.388027
LeftArm -7.601706 -10.334683 -82.108593
LeftForeArm -22.135498 -0.000000 124.027175
LeftHand 10.035013 -0.000000 -22.354301
LeftHandThumb1 -26.253704 0.000000 33.147579
RightShoulder -19.009715 -17.161721 -20.596376
RightArm 6.424767 -10.203309 87.321235
RightForeArm -14.784284 -0.000000 16.863770
RightHand 19.165269 -0.000000 7.560571
RightHandThumb1 -24.326973 -0.000000 -32.862282
LeftUpLeg 14.698903 11.006825 5.419492
LeftLeg -0.908159 -0.000000 0.000000
LeftFoot -19.741599 16.549879 -18.689674
LeftToeBase 24.420366 -0.000000 -0.000000
RightUpLeg -79.515133 -21.750925 12.878209
RightLeg 100.617078 -0.000000 -0.000000
RightFoot 27.699515 -28.171336 23.746626
RightToeBase 8.116508 -0.000000 -0.000000
2060
root 6.804879 32.907518 1.927493 -6.399057 -16.415794 -13.923507
Spine 9.792364 12.178387 6.355868
Head 9.985167 -7.215460 8.909051
LeftShoulder -14.922530 1.935745 31.374327
LeftArm -7.616099 -10.330362 -82.089544
LeftForeArm -22.209926 -0.000000 123.955000
LeftHand 10.030570 -0.000000 -22.342759
LeftHandThumb1 -26.253704 0.000000 33.147579
RightShoulder -18.999993 -17.191284 -20.607146
RightArm 6.464523 -10.276537 87.406123
RightForeArm -14.757736 0.000000 16.795204
RightHand 19.164012 -0.000000 7.395744
RightHandThumb1 -24.326973 -0.000000 -32.862282
LeftUpLeg 14.623669 10.925212 5.358023
LeftLeg -0.875471 -0.000000 0.000000
LeftFoot -19.661016 16.553941 -18.555759
LeftToeBase 24.233135 -0.000000 -0.000000
RightUpLeg -79.557456 -21.824574 12.908962
RightLeg 100.582445 -0.000000 -0.000000
RightFoot 27.652446 -28.254878 23.736682
RightToeBase 8.144922 -0.000000 -0.000000
2061
root 6.806021 32.906636 1.920762 -6.388845 -16.353964 -13.915089
Spine 9.794526 12.176795 6.403967
Head 9.980226 -7.228490 8.871278
LeftShoulder -14.920131 1.924390 31.364705
LeftArm -7.609857 -10.336464 -82.062310
LeftForeArm -22.338277 -0.000000 123.868663
LeftHand 9.994922 -0.000000 -22.637015
LeftHandThumb1 -26.253704 0.000000 33.147579
RightShoulder -18.989020 -17.204242 -20.615644
RightArm 6.471351 -10.341205 87.460901
RightForeArm -14.762330 -0.000000 16.800153
RightHand 19.117184 -0.000000 7.466482
RightHandThumb1 -24.326973 -0.000000 -32.862282
LeftUpLeg 14.587110 10.877093 5.335653
LeftLeg -0.885856 -0.000000 0.000000
LeftFoot -19.699257 16.606186 -18.612516
LeftToeBase 24.245672 -0.000000 -0.000000
RightUpLeg -79.568112 -21.874030 12.931137
RightLeg 100.553351 -0.000000 -0.000000
RightFoot 27.614160 -28.258931 23.775486
RightToeBase 8.311995 -0.000000 -0.000000
2062
root 6.808274 32.905531 1.914837 -6.386242 -16.310606 -13.897678
Spine 9.803680 12.202467 6.444580
Head 9.980101 -7.264487 8.843302
LeftShoulder -14.905128 1.933229 31.358691
LeftArm -7.580275 -10.362474 -82.054639
LeftForeArm -22.364641 -0.000000 123.783999
LeftHand 9.980219 -0.000000 -22.435205
LeftHandThumb1 -26.253704 0.000000 33.147579
RightShoulder -18.997411 -17.189400 -20.621138
RightArm 6.462917 -10.366079 87.511516
RightForeArm -14.734117 -0.000000 16.805908
RightHand 19.076886 -0.000000 7.474340
RightHandThumb1 -24.326973 -0.000000 -32.862282
LeftUpLeg 14.548904 10.817568 5.298964
LeftLeg -0.863858 -0.000000 0.000000
LeftFoot -19.707292 16.622758 -18.596283
LeftToeBase 24.399945 -0.000000 -0.000000
RightUpLeg -79.580421 -21.913195 12.940850
RightLeg 100.524073 -0.000000 -0.000000
RightFoot 27.624484 -28.237141 23.814936
RightToeBase 8.430916 -0.000000 -0.000000
2063
root 6.810169 32.904145 1.910494 -6.389954 -16.289103 -13.871823
Spine 9.815567 12.229552 6.473482
Head 9.975705 -7.295807 8.838814
LeftShoulder -14.885945 1.941519 31.363153
LeftArm -7.592066 -10.393380 -82.028626
LeftForeArm -22.444024 0.000000 123.706298
LeftHand 10.007763 -0.000000 -22.632676
LeftHandThumb1 -26.253704 0.000000 33.147579
RightShoulder -18.981711 -17.197620 -20.625306
RightArm 6.471870 -10.394306 87.556361
RightForeArm -14.646590 -0.000000 16.804194
RightHand 19.127202 0.000000 7.457549
RightHandThumb1 -24.326973 -0.000000 -32.862282
LeftUpLeg 14.530595 10.809168 5.267427
LeftLeg -0.890840 -0.000000 0.000000
LeftFoot -19.571241 16.660874 -18.422122
LeftToeBase 24.231303 -0.000000 -0.000000
RightUpLeg -79.582144 -21.934243 12.954969
RightLeg 100.493222 -0.000000 -0.000000
RightFoot 27.643586 -28.199642 23.817982
RightToeBase 8.415476 -0.000000 -0.000000
2064
root 6.812855 32.902932 1.906691 -6.400581 -16.280181 -13.844780
Spine 9.831200 12.233902 6.513047
Head 9.988086 -7.343413 8.803737
LeftShoulder -14.902042 1.955309 31.359569
LeftArm -7.604240 -10.409242 -81.987333
LeftForeArm -22.467122 -0.000000 123.603568
LeftHand 10.060914 -0.000000 -22.672959
LeftHandThumb1 -26.253704 0.000000 33.147579
RightShoulder -18.933786 -17.176785 -20.660166
RightArm 6.455019 -10.346879 87.615636
RightForeArm -14.696870 0.000000 16.842827
RightHand 19.004173 0.000000 7.421174
RightHandThumb1 -24.326973 -0.000000 -32.862282
LeftUpLeg 14.529184 10.816101 5.248273
LeftLeg -0.899006 -0.000000 0.000000
LeftFoot -19.509021 16.596277 -18.417310
LeftToeBase 24.165630 -0.000000 -0.000000
RightUpLeg -79.577856 -21.952718 12.971497
RightLeg 100.462045 -0.000000 -0.000000
RightFoot 27.697937 -28.129967 23.787643
RightToeBase 8.340849 -0.000000 -0.000000
2065
root 6.813637 32.902322 1.902800 -6.403537 -16.282358 -13.836255
Spine 9.845836 12.261151 6.553445
Head 10.002434 -7.281746 8.795864
LeftShoulder -14.904128 1.928417 31.391685
LeftArm -7.654736 -10.399439 -81.947352
LeftForeArm -22.494005 0.000000 123.511862
LeftHand 10.124969 -0.000000 -22.502498
LeftHandThumb1 -26.253704 0.000000 33.147579
RightShoulder -18.915037 -17.149320 -20.655949
RightArm 6.447383 -10.302547 87.634731
RightForeArm -14.729402 -0.000000 16.842384
RightHand 19.048840 0.000000 7.363180
RightHandThumb1 -24.326973 -0.000000 -32.862282
LeftUpLeg 14.515249 10.773098 5.218038
LeftLeg -0.881736 -0.000000 0.000000
LeftFoot -19.515769 16.749098 -18.313428
LeftToeBase 23.937041 -0.000000 -0.000000
RightUpLeg -79.568594 -21.956110 13.016612
RightLeg 100.418020 -0.000000 -0.000000
RightFoot 27.738616 -28.111436 23.763922
RightToeBase 8.275437 -0.000000 -0.000000
2066
root 6.815082 32.901329 1.901001 -6.422297 -16.290199 -13.822469
Spine 9.866132 12.275223 6.598149
Head 10.040216 -7.267109 8.776654
LeftShoulder -14.913390 1.943319 31.398485
LeftArm -7.660677 -10.402232 -81.908643
LeftForeArm -22.512134 0.000000 123.414922
LeftHand 10.171430 0.000000 -22.373458
LeftHandThumb1 -26.253704 0.000000 33.147579
RightShoulder -18.878692 -17.139891 -20.673561
RightArm 6.453031 -10.262603 87.659955
RightForeArm -14.703367 0.000000 16.852330
RightHand 19.033170 0.000000 7.285619
RightHandThumb1 -24.326973 -0.000000 -32.862282
LeftUpLeg 14.545245 10.797214 5.217300
LeftLeg -0.923520 -0.000000 0.000000
LeftFoot -19.397801 16.682883 -18.231443
LeftToeBase 23.967796 -0.000000 -0.000000
RightUpLeg -79.539780 -21.961654 13.038163
RightLeg 100.389327 -0.000000 -0.000000
RightFoot 27.641238 -28.124434 23.935335
RightToeBase 8.559675 -0.000000 -0.000000
2067
root 6.816328 32.900326 1.898447 -6.430386 -16.311264 -13.811701
Spine 9.878182 12.302658 6.643466
Head 10.076036 -7.280267 8.770704
LeftShoulder -14.937773 1.958301 31.405884
LeftArm -7.641745 -10.374600 -81.876270
LeftForeArm -22.548721 -0.000000 123.303943
LeftHand 10.207182 -0.000000 -22.329609
LeftHandThumb1 -26.253704 0.000000 33.147579
RightShoulder -18.851054 -17.120263 -20.684904
RightArm 6.456839 -10.242530 87.668969
RightForeArm -14.660623 0.000000 16.861591
RightHand 19.060023 -0.000000 7.265378
RightHandThumb1 -24.326973 -0.000000 -32.862282
LeftUpLeg 14.565442 10.804121 5.205097
LeftLeg -0.955227 -0.000000 0.000000
LeftFoot -19.351422 16.707423 -18.171241
LeftToeBase 23.986534 -0.000000 -0.000000
RightUpLeg -79.521853 -21.957065 13.102568
RightLeg 100.328531 -0.000000 -0.000000
RightFoot 28.081774 -27.921190 23.339215
RightToeBase 7.562600 -0.000000 -0.000000
2068
root 6.819242 32.898854 1.894748 -6.428764 -16.321071 -13.797056
Spine 9.880422 12.319363 6.685718
Head 10.101708 -7.262299 8.760735
LeftShoulder -14.958340 1.974164 31.393015
LeftArm -7.613245 -10.347165 -81.822715
LeftForeArm -22.620802 -0.000000 123.202394
LeftHand 10.208249 -0.000000 -22.304618
LeftHandThumb1 -26.253704 0.000000 33.147579
RightShoulder -18.820078 -17.095424 -20.711999
RightArm 6.441775 -10.201507 87.686035
RightForeArm -14.620977 -0.000000 16.907877
RightHand 19.103798 0.000000 7.427557
RightHandThumb1 -24.326973 -0.000000 -32.862282
LeftUpLeg 14.547611 10.745876 5.156665
LeftLeg -0.937055 -0.000000 0.000000
LeftFoot -19.285805 16.820132 -17.966865
LeftToeBase 23.931962 -0.000000 -0.000000
RightUpLeg -79.510561 -21.955193 13.136278
RightLeg 100.288733 -0.000000 -0.000000
RightFoot 28.046088 -27.921973 23.395488
RightToeBase 7.573028 -0.000000 -0.000000
2069
root 6.820161 32.897073 1.892439 -6.439600 -16.349437 -13.783141
Spine 9.894514 12.357601 6.727179
Head 10.122191 -7.290677 8.772079
LeftShoulder -14.968500 1.945293 31.405148
LeftArm -7.627697 -10.327018 -81.771589
LeftForeArm -22.663857 -0.000000 123.096576
LeftHand 10.258211 -0.000000 -22.437594
LeftHandThumb1 -26.253704 0.000000 33.147579
RightShoulder -18.802821 -17.104312 -20.724668
RightArm 6.466001 -10.191488 87.684216
RightForeArm -14.576046 -0.000000 16.951415
RightHand 19.072759 -0.000000 7.483451
RightHandThumb1 -24.326973 -0.000000 -32.862282
LeftUpLeg 14.577357 10.745786 5.141337
LeftLeg -1.000710 -0.000000 0.000000
LeftFoot -19.276430 16.900477 -17.992639
LeftToeBase 23.758319 -0.000000 -0.000000
RightUpLeg -79.480580 -21.938655 13.162315
RightLeg 100.253560 -0.000000 -0.000000
RightFoot 27.847360 -27.988294 23.651059
RightToeBase 8.147211 -0.000000 -0.000000
